<?xml version="1.0" standalone="no"?><!DOCTYPE svg PUBLIC "-//W3C//DTD SVG 1.1//EN" "http://www.w3.org/Graphics/SVG/1.1/DTD/svg11.dtd"><svg t="1550653355822" class="icon" style="" viewBox="0 0 1024 1024" version="1.1" xmlns="http://www.w3.org/2000/svg" p-id="2270" xmlns:xlink="http://www.w3.org/1999/xlink" width="128" height="128"><defs><style type="text/css"></style></defs><path d="M329.142857 256q0-30.285714-21.428571-51.714286T256 182.857143t-51.714286 21.428571T182.857143 256t21.428571 51.714286T256 329.142857t51.714286-21.428571T329.142857 256z m609.714286 329.142857q0 30.285714-21.142857 51.428572l-280.571429 281.142857q-22.285714 21.142857-52 21.142857-30.285714 0-51.428571-21.142857L125.142857 508.571429q-21.714286-21.142857-36.857143-57.714286T73.142857 384V146.285714q0-29.714286 21.714286-51.428571t51.428571-21.714286h237.714286q30.285714 0 66.857143 15.142857T509.142857 125.142857l408.571429 408q21.142857 22.285714 21.142857 52z" p-id="2271" fill="#ffffff"></path></svg>