<?xml version="1.0" standalone="no"?><!DOCTYPE svg PUBLIC "-//W3C//DTD SVG 1.1//EN" "http://www.w3.org/Graphics/SVG/1.1/DTD/svg11.dtd"><svg t="1548420067987" class="icon" style="" viewBox="0 0 1024 1024" version="1.1" xmlns="http://www.w3.org/2000/svg" p-id="955" xmlns:xlink="http://www.w3.org/1999/xlink" width="128" height="128"><defs><style type="text/css"></style></defs><path d="M904.4 346.2c-21.5-50.7-52.2-96.3-91.3-135.4-39.1-39.1-84.6-69.8-135.4-91.3C625.3 97.4 569.5 86.1 512 86.1s-113.3 11.3-165.8 33.5c-50.7 21.5-96.3 52.2-135.4 91.3-39.1 39.1-69.8 84.6-91.3 135.4C97.4 398.7 86.1 454.5 86.1 512c0 57.5 11.3 113.3 33.5 165.8 21.5 50.7 52.2 96.3 91.3 135.4 39.1 39.1 84.6 69.8 135.4 91.3 52.5 22.2 108.3 33.5 165.8 33.5s113.3-11.3 165.8-33.5c50.7-21.5 96.3-52.2 135.4-91.3 39.1-39.1 69.8-84.6 91.3-135.4 22.2-52.5 33.5-108.3 33.5-165.8-0.2-57.5-11.5-113.3-33.7-165.8zM770.7 770.7c-69.1 69.1-161 107.2-258.7 107.2s-189.6-38.1-258.7-107.2-107.2-161-107.2-258.7 38.1-189.6 107.2-258.7 161-107.2 258.7-107.2 189.6 38.1 258.7 107.2 107.2 161 107.2 258.7-38.1 189.6-107.2 258.7z" p-id="956" fill="#ffffff"></path><path d="M618.9 552.8c47.3-33.6 78.2-88.7 78.2-151 0-102-83-185.1-185.1-185.1s-185.1 83-185.1 185.1c0 62.3 30.9 117.4 78.2 151-67.5 32.9-118.4 96-133.4 173.5-3.1 16.3 7.5 32 23.8 35.1 1.9 0.4 3.8 0.5 5.7 0.5 14.1 0 26.7-10 29.4-24.3 16.7-86.6 93-149.5 181.3-149.5 88.4 0 164.6 62.9 181.3 149.5 3.1 16.3 18.9 26.9 35.1 23.8 16.3-3.1 26.9-18.9 23.8-35.1-14.8-77.6-65.7-140.7-133.2-173.5zM512 276.7c69 0 125.1 56.1 125.1 125.1s-56.1 125-125.1 125-125.1-56.1-125.1-125.1 56.1-125 125.1-125z" p-id="957" fill="#ffffff"></path></svg>